<svg width="403" height="852" viewBox="0 0 403 852" fill="none" xmlns="http://www.w3.org/2000/svg">
<g opacity="0.2">
<path opacity="0.0526316" d="M-205.956 718.26C-185.848 745.857 -121.58 792.036 -25.3729 755.981C94.8855 710.914 141.396 591.451 248.729 529.508C327.948 483.789 540.814 415.163 663.215 490.996" stroke="#FFCC00" stroke-width="4" stroke-linecap="round"/>
<path opacity="0.105263" d="M-225.79 660.407C-208.588 690.02 -149.352 742.876 -50.0185 717.393C74.1479 685.539 132.509 571.745 245.53 521.715C328.949 484.789 547.602 439.491 661.648 528.106" stroke="#FFCC00" stroke-width="4" stroke-linecap="round"/>
<path opacity="0.157895" d="M-240.774 601.774C-226.667 633.08 -173.111 692.033 -71.7399 677.4C54.9741 659.109 124.547 552.232 242.018 514.663C328.721 486.933 550.767 465.46 655.209 565.887" stroke="#FFCC00" stroke-width="4" stroke-linecap="round"/>
<path opacity="0.210526" d="M-250.856 542.887C-239.999 575.542 -192.71 639.948 -90.4108 636.325C37.4625 631.798 117.484 533.008 238.119 508.31C327.157 490.082 550.162 492.669 643.856 603.807" stroke="#FFCC00" stroke-width="4" stroke-linecap="round"/>
<path opacity="0.263158" d="M-256.036 484.277C-248.547 517.924 -208.044 587.076 -105.938 594.504C21.6934 603.789 111.287 514.168 233.764 502.614C324.161 494.086 545.683 520.704 627.601 641.336" stroke="#FFCC00" stroke-width="4" stroke-linecap="round"/>
<path opacity="0.315789" d="M-256.37 426.471C-252.331 460.741 -219.057 533.881 -118.264 552.278C7.72795 575.274 105.912 495.806 228.889 497.521C319.655 498.786 537.266 549.145 606.512 677.949" stroke="#FFCC00" stroke-width="4" stroke-linecap="round"/>
<path opacity="0.368421" d="M-251.965 369.986C-251.422 404.504 -225.741 480.832 -127.364 509.996C-4.39277 546.451 101.306 478.005 223.436 492.97C313.576 504.016 524.892 577.563 580.706 713.128" stroke="#FFCC00" stroke-width="4" stroke-linecap="round"/>
<path opacity="0.421053" d="M-242.982 315.327C-245.939 349.715 -228.133 428.393 -133.251 468.005C-14.6473 517.521 97.4085 460.846 217.352 488.898C305.88 509.603 508.585 605.532 550.357 746.373" stroke="#FFCC00" stroke-width="4" stroke-linecap="round"/>
<path opacity="0.473684" d="M-229.63 262.978C-236.056 296.858 -226.32 377.025 -135.971 426.651C-23.035 488.684 94.1498 444.402 210.594 485.234C296.539 515.371 488.413 632.632 515.684 777.205" stroke="#FFCC00" stroke-width="4" stroke-linecap="round"/>
<path opacity="0.526316" d="M-212.168 213.396C-221.992 246.398 -220.433 327.176 -135.607 386.272C-29.5756 460.142 91.4544 428.738 203.123 481.902C285.543 521.141 464.484 658.448 476.956 805.17" stroke="#FFCC00" stroke-width="4" stroke-linecap="round"/>
<path opacity="0.578947" d="M-190.898 167.009C-204.012 198.771 -210.647 279.274 -132.275 347.193C-34.3093 432.091 89.2399 413.91 194.91 478.823C272.902 526.734 436.949 682.584 434.485 829.847" stroke="#FFCC00" stroke-width="4" stroke-linecap="round"/>
<path opacity="0.631579" d="M-166.165 124.212C-182.426 154.386 -197.182 233.733 -126.122 309.73C-37.2957 404.726 87.419 399.967 185.932 475.918C258.642 531.976 405.998 704.661 388.625 850.851" stroke="#FFCC00" stroke-width="4" stroke-linecap="round"/>
<path opacity="0.684211" d="M-138.352 85.3572C-157.582 113.612 -180.297 190.933 -117.327 274.177C-38.6138 378.23 85.9001 386.944 176.177 473.102C242.809 536.693 371.859 724.32 339.767 867.836" stroke="#FFCC00" stroke-width="4" stroke-linecap="round"/>
<path opacity="0.736842" d="M-107.876 50.7544C-129.863 76.7813 -160.289 151.229 -106.099 240.806C-38.3607 352.778 84.588 374.869 165.64 470.29C225.463 540.717 334.794 741.231 288.335 880.501" stroke="#FFCC00" stroke-width="4" stroke-linecap="round"/>
<path opacity="0.789474" d="M-75.1805 20.67C-99.6845 44.1836 -137.488 114.943 -92.6717 209.872C-36.651 328.534 83.3856 363.762 154.325 467.399C206.683 543.891 295.096 755.095 234.78 888.593" stroke="#FFCC00" stroke-width="4" stroke-linecap="round"/>
<path opacity="0.842105" d="M-40.737 -4.68402C-67.4894 16.0586 -112.256 82.3543 -77.3045 181.596C-33.615 305.648 82.1944 353.626 142.243 464.344C186.563 546.063 253.091 765.644 179.577 891.906" stroke="#FFCC00" stroke-width="4" stroke-linecap="round"/>
<path opacity="0.894737" d="M-5.03375 -25.1437C-33.7415 -7.39932 -84.981 53.7062 -60.2771 156.173C-29.3973 284.256 80.9159 344.459 129.416 461.045C165.213 547.095 209.126 772.646 123.22 890.29" stroke="#FFCC00" stroke-width="4" stroke-linecap="round"/>
<path opacity="0.947368" d="M31.4259 -40.6004C1.07736 -26.0487 -56.0734 29.1971 -41.888 133.766C-24.1562 264.478 79.4523 336.245 115.873 457.422C142.754 546.861 163.571 775.911 66.2149 883.648" stroke="#FFCC00" stroke-width="4" stroke-linecap="round"/>
<path d="M68.1311 -51C36.4742 -39.8003 -25.9616 8.98049 -22.45 114.506C-18.0607 246.414 77.708 328.959 101.65 453.4C119.321 545.247 116.813 775.287 9.0738 871.936" stroke="#FFCC00" stroke-width="4" stroke-linecap="round"/>
</g>
</svg>
