<svg width="23" height="22" viewBox="0 0 23 22" fill="none" xmlns="http://www.w3.org/2000/svg">
<path fill-rule="evenodd" clip-rule="evenodd" d="M6.20214 1.23672C5.11714 1.23672 4.07657 1.66763 3.30921 2.43469C2.54186 3.20175 2.11055 4.24216 2.11014 5.32715V16.2392C2.11014 17.3244 2.54126 18.3652 3.30866 19.1326C4.07606 19.9 5.11687 20.3312 6.20214 20.3312H17.1141C18.1991 20.3307 19.2395 19.8994 20.0066 19.1321C20.7737 18.3647 21.2046 17.3241 21.2046 16.2392V5.32715C21.2042 4.24243 20.7731 3.20226 20.006 2.43524C19.239 1.66823 18.1989 1.23714 17.1141 1.23672H6.20214ZM18.2911 5.33344C18.2911 5.64602 18.167 5.94579 17.9459 6.16682C17.7249 6.38784 17.4251 6.51201 17.1126 6.51201C16.8 6.51201 16.5002 6.38784 16.2792 6.16682C16.0582 5.94579 15.934 5.64602 15.934 5.33344C15.934 5.02086 16.0582 4.72109 16.2792 4.50006C16.5002 4.27904 16.8 4.15487 17.1126 4.15487C17.4251 4.15487 17.7249 4.27904 17.9459 4.50006C18.167 4.72109 18.2911 5.02086 18.2911 5.33344ZM11.6597 7.51458C10.7928 7.51458 9.96146 7.85895 9.34848 8.47192C8.73551 9.0849 8.39114 9.91628 8.39114 10.7832C8.39114 11.65 8.73551 12.4814 9.34848 13.0944C9.96146 13.7074 10.7928 14.0517 11.6597 14.0517C12.5266 14.0517 13.358 13.7074 13.9709 13.0944C14.5839 12.4814 14.9283 11.65 14.9283 10.7832C14.9283 9.91628 14.5839 9.0849 13.9709 8.47192C13.358 7.85895 12.5266 7.51458 11.6597 7.51458ZM6.81814 10.7832C6.81814 9.49951 7.32807 8.26843 8.23574 7.36076C9.14342 6.45308 10.3745 5.94315 11.6581 5.94315C12.9418 5.94315 14.1729 6.45308 15.0805 7.36076C15.9882 8.26843 16.4981 9.49951 16.4981 10.7832C16.4981 12.0668 15.9882 13.2979 15.0805 14.2056C14.1729 15.1132 12.9418 15.6232 11.6581 15.6232C10.3745 15.6232 9.14342 15.1132 8.23574 14.2056C7.32807 13.2979 6.81814 12.0668 6.81814 10.7832Z" fill="#FFCD11"/>
</svg>
