<svg width="23" height="22" viewBox="0 0 23 22" fill="none" xmlns="http://www.w3.org/2000/svg">
<g clip-path="url(#clip0_3_1758)">
<path d="M19.619 18.7473H16.3608V13.6433C16.3608 12.4256 16.3355 10.8592 14.6624 10.8592C12.964 10.8592 12.7044 12.1836 12.7044 13.5531V18.7473H9.4473V8.25H12.5757V9.68H12.6186C13.0553 8.855 14.119 7.986 15.7074 7.986C19.0085 7.986 19.619 10.1574 19.619 12.9855V18.7473ZM5.7667 6.8134C4.7173 6.8134 3.8747 5.9653 3.8747 4.9214C3.8747 3.8775 4.7184 3.0294 5.7667 3.0294C6.26849 3.0294 6.74973 3.22874 7.10455 3.58355C7.45936 3.93837 7.6587 4.41961 7.6587 4.9214C7.6587 5.42319 7.45936 5.90443 7.10455 6.25925C6.74973 6.61407 6.26849 6.8134 5.7667 6.8134ZM7.3991 18.7484H4.1321V8.25H7.3991V18.7484ZM21.2492 0H2.4986C1.601 0 0.875 0.7095 0.875 1.584V20.416C0.875 21.2905 1.601 22 2.4986 22H21.2448C22.1413 22 22.875 21.2916 22.875 20.416V1.584C22.875 0.7106 22.1413 0 21.2448 0H21.2492Z" fill="#FFCD11"/>
</g>
<defs>
<clipPath id="clip0_3_1758">
<rect width="22" height="22" fill="white" transform="translate(0.875)"/>
</clipPath>
</defs>
</svg>
