<svg id="Logo" xmlns="http://www.w3.org/2000/svg" width="158.995" height="26" viewBox="0 0 158.995 26">
  <path id="Union_1" data-name="Union 1" d="M68.635,26a4.908,4.908,0,0,1-.383-2.181V17.039a1.875,1.875,0,0,0-1.941-2.123H64.962V26H59.485l0-25.494h8.225c4.589,0,6.005,2.448,6.005,6.388,0,2.792-.708,4.973-3.308,5.661,2.237.4,3.279,2.109,3.279,5.039v6.188A4.187,4.187,0,0,0,74.172,26ZM64.962,10.656l1.445-.034c1.415,0,1.874-.8,1.874-2.811s-.412-2.927-1.664-2.927H64.962ZM76.378,25.995,76.375.5h8.559c5.039,0,5.891,3.212,5.891,7.688s-.852,7.688-5.891,7.688h-3.07V25.995Zm5.467-14.65,1.676.018c1.414,0,1.654-.764,1.654-3.174,0-2.333-.24-3.31-1.664-3.31H81.844Zm55,14.641-.539-4.508-3.961,0-.538,4.505h-5.547L130.639.444H138l4.4,25.542Zm-3.94-9.171h2.845l-1.425-11.9Zm-18.8,9.171V.5h5.613V21.146h5.854v4.84Zm-12.813,0V.5h5.611V21.146h5.854v4.84Zm-8.589,0V.5h5.614V25.985Zm60.75,0a4.929,4.929,0,0,1-.381-2.179v-6.78a1.874,1.874,0,0,0-1.939-2.123H149.8V25.984H144.31V.491h8.22c4.591,0,6.009,2.447,6.009,6.386,0,2.793-.71,4.974-3.311,5.662,2.239.4,3.281,2.109,3.281,5.039v6.188a4.236,4.236,0,0,0,.486,2.217Zm-3.682-15.376h1.457c1.414,0,1.874-.8,1.874-2.812s-.412-2.927-1.664-2.927h-1.667ZM44.386.5H56.678V5.358H50v5.048h5.816V15.4H50v5.662l6.9,0,0,4.918-12.521.005ZM5.35,25.94A5.186,5.186,0,0,1,0,20.748V5.449C0,2.466,1.844,0,6.719,0c4.75.007,6.7,2.461,6.7,5.444v5.4H8.1v-5.2A1.337,1.337,0,0,0,6.764,4.3,1.3,1.3,0,0,0,5.474,5.639V20.291a1.3,1.3,0,0,0,1.289,1.337A1.338,1.338,0,0,0,8.1,20.291V15.118h5.322v3.812a3.287,3.287,0,0,1-1.148,2.736L7,25.94Zm32.263-.03-4.355-3.645V5.454h-3.67V.5H42.878V5.454H39.187V25.911ZM22.7,13.419l-8.044,6.493L18.975.529H26.39l4.7,19.918Zm-1.434-1.242h2.86L22.7,4.852ZM44.38.5h.006Z" fill="#fff"/>
  <path id="Path_11" data-name="Path 11" d="M-211.48,440.948-224.424,430.1l-13.415,10.844Z" transform="translate(247.119 -415.001)" fill="#ffc60a"/>
</svg>
