<svg width="21" height="22" viewBox="0 0 21 22" fill="none" xmlns="http://www.w3.org/2000/svg">
<path d="M15.1191 10.1277C15.2137 10.1664 15.2996 10.2094 15.3898 10.248C16.6445 10.8539 17.5641 11.7605 18.0453 12.8863C18.7199 14.4547 18.7844 17.0027 16.7434 19.0395C15.1879 20.5949 13.293 21.2953 10.616 21.3168H10.6031C7.58672 21.2953 5.2707 20.2812 3.71094 18.3004C2.32305 16.5387 1.60977 14.0852 1.58398 11.0129V10.9914C1.60547 7.91914 2.31875 5.46562 3.70664 3.70391C5.26641 1.72305 7.58672 0.708984 10.6031 0.6875H10.616C13.6367 0.708984 15.9828 1.71875 17.5898 3.69102C18.3805 4.66641 18.9648 5.83945 19.3344 7.20156L17.5984 7.66562C17.2934 6.55703 16.8336 5.61172 16.2148 4.85547C14.9602 3.31719 13.0781 2.52656 10.6074 2.50938C8.1582 2.53086 6.30625 3.31719 5.09883 4.84688C3.97305 6.27773 3.38867 8.34883 3.36719 11C3.38867 13.6512 3.97305 15.7223 5.09883 17.1574C6.30195 18.6871 8.1582 19.4734 10.6074 19.4949C12.816 19.4777 14.277 18.9535 15.493 17.7375C16.8809 16.3539 16.8551 14.6523 16.4125 13.6168C16.1504 13.0066 15.6777 12.4996 15.0418 12.1172C14.8828 13.273 14.5348 14.1926 13.9805 14.9016C13.2457 15.8383 12.2016 16.3453 10.8566 16.4184C9.84258 16.4742 8.86719 16.2293 8.11094 15.7309C7.21719 15.1379 6.69297 14.2355 6.63711 13.1828C6.52969 11.1074 8.17109 9.61641 10.7277 9.47031C11.6344 9.41875 12.4852 9.45742 13.2715 9.59062C13.1684 8.95469 12.9578 8.44766 12.6441 8.07812C12.2145 7.57539 11.5441 7.31758 10.659 7.31328H10.6289C9.91562 7.31328 8.95312 7.51094 8.33867 8.44336L6.86055 7.4293C7.68555 6.17891 9.02188 5.49141 10.6332 5.49141H10.6676C13.3574 5.50859 14.9602 7.18867 15.1234 10.1191L15.1148 10.1277H15.1191ZM8.41602 13.084C8.47188 14.1625 9.63633 14.6652 10.7621 14.6008C11.8621 14.5406 13.1082 14.1109 13.3188 11.4555C12.7516 11.3309 12.1242 11.2664 11.4539 11.2664C11.2477 11.2664 11.0414 11.2707 10.8352 11.2836C8.9918 11.3867 8.37734 12.2805 8.42031 13.0797L8.41602 13.084Z" fill="#FFCD11" stroke="#FFCD11" stroke-width="0.5"/>
</svg>
